<?xml version="1.0" encoding="UTF-8"?>
<svg width="1047px" height="852px" viewBox="0 0 1047 852" version="1.1" xmlns="http://www.w3.org/2000/svg" xmlns:xlink="http://www.w3.org/1999/xlink">
    <!-- Generator: Sketch 48.1 (47250) - http://www.bohemiancoding.com/sketch -->
    <title>Slice 1</title>
    <desc>Created with Sketch.</desc>
    <defs>
        <linearGradient x1="49.9944184%" y1="100%" x2="49.9944184%" y2="0%" id="linearGradient-1">
            <stop stop-color="#808080" stop-opacity="0.25" offset="0%"></stop>
            <stop stop-color="#808080" stop-opacity="0.12" offset="54%"></stop>
            <stop stop-color="#808080" stop-opacity="0.1" offset="100%"></stop>
        </linearGradient>
        <linearGradient x1="27151%" y1="39501%" x2="27151%" y2="17308%" id="linearGradient-2">
            <stop stop-color="#808080" stop-opacity="0.25" offset="0%"></stop>
            <stop stop-color="#808080" stop-opacity="0.12" offset="54%"></stop>
            <stop stop-color="#808080" stop-opacity="0.1" offset="100%"></stop>
        </linearGradient>
        <linearGradient x1="84754%" y1="73489%" x2="84754%" y2="46105%" id="linearGradient-3">
            <stop stop-color="#808080" stop-opacity="0.25" offset="0%"></stop>
            <stop stop-color="#808080" stop-opacity="0.12" offset="54%"></stop>
            <stop stop-color="#808080" stop-opacity="0.1" offset="100%"></stop>
        </linearGradient>
        <linearGradient x1="21157%" y1="70574%" x2="21157%" y2="44319%" id="linearGradient-4">
            <stop stop-color="#808080" stop-opacity="0.25" offset="0%"></stop>
            <stop stop-color="#808080" stop-opacity="0.12" offset="54%"></stop>
            <stop stop-color="#808080" stop-opacity="0.1" offset="100%"></stop>
        </linearGradient>
        <linearGradient x1="57069%" y1="73135%" x2="57069%" y2="47067%" id="linearGradient-5">
            <stop stop-color="#808080" stop-opacity="0.25" offset="0%"></stop>
            <stop stop-color="#808080" stop-opacity="0.12" offset="54%"></stop>
            <stop stop-color="#808080" stop-opacity="0.1" offset="100%"></stop>
        </linearGradient>
        <linearGradient x1="61078%" y1="31804%" x2="61078%" y2="16029%" id="linearGradient-6">
            <stop stop-color="#808080" stop-opacity="0.25" offset="0%"></stop>
            <stop stop-color="#808080" stop-opacity="0.12" offset="54%"></stop>
            <stop stop-color="#808080" stop-opacity="0.1" offset="100%"></stop>
        </linearGradient>
        <linearGradient x1="62544%" y1="87017%" x2="62544%" y2="20210%" id="linearGradient-7">
            <stop stop-color="#808080" stop-opacity="0.25" offset="0%"></stop>
            <stop stop-color="#808080" stop-opacity="0.12" offset="54%"></stop>
            <stop stop-color="#808080" stop-opacity="0.1" offset="100%"></stop>
        </linearGradient>
    </defs>
    <g id="Page-1" stroke="none" stroke-width="1" fill="none" fill-rule="evenodd">
        <g id="undraw_taking_notes_tjaf">
            <ellipse id="Oval" fill="#1C3ED3" fill-rule="nonzero" opacity="0.1" cx="632.92" cy="833.86" rx="106.94" ry="17.92"></ellipse>
            <path d="M628.43,105.33 C584.65,142.47 527.85,140.07 478.13,120.75 C428.41,101.43 382.61,67.02 334.13,42.57 C294.447469,22.378098 251.702104,8.87973947 207.62,2.62 C145.83,-5.95 76.81,4.49 33.75,64.53 C-14.2,131.39 -10.51,251.98 41.35,313.39 C67.73,344.61 102.27,359.93 132.4,384.31 C162.53,408.69 190.4,449.16 187.84,496.21 C185.47,539.77 157.84,573.21 129.28,594.21 C107.19,610.41 79.99,628.11 77.28,661.68 C74.7,694.16 97.57,719.61 119.42,734.09 C190.66,781.31 278.42,780.85 349.42,732.9 C374.75,715.79 398.02,693.04 424.58,679.7 C494.3,644.7 571.14,679.93 644.96,692.82 C707.45,703.73 771.53,698.08 832.41,676.29 C868.97,663.21 905.67,643.21 931.36,605.95 C949.88,579.08 961.42,545.07 972.25,511.49 C983.81,475.676667 994.916667,439.613333 1005.57,403.3 C1011.96,381.5 1018.26,359.3 1019.91,335.96 C1022.91,293.69 1010.29,251.96 993.12,216.24 C952.39,131.48 883.72,71.93 809.39,56.8 C735.06,41.67 656.3,71.22 598.62,135.87" id="Shape" fill="#6696CD" fill-rule="nonzero" opacity="0.227038043"></path>
            <g id="Group" opacity="0.35" transform="translate(337.000000, 197.000000)" fill="#1C3ED3" fill-rule="nonzero">
                <path d="M163.99,7.04 L163.99,0.39 L59.19,0.39 C54.37,0.39 57.31,7.08 57.31,7.08 L0.37,7.08 L0.37,156.23 L250.37,156.23 L250.37,7.04 L163.99,7.04 Z" id="Shape" opacity="0.2"></path>
            </g>
            <path d="M833.41,315.29 C833.41,315.29 864.92,259.47 912.41,243.39 C932.35753,236.770749 949.618576,223.857423 961.6,206.59 C967.226341,198.353079 972.083451,189.616307 976.11,180.49" id="Shape" stroke="#535461" stroke-width="2"></path>
            <path d="M1005.91,170.17 C1000.51,175.42 975.33,180.85 975.33,180.85 C975.33,180.85 981.5,155.85 986.91,150.59 C992.316868,145.343295 1000.95329,145.473132 1006.2,150.88 C1011.44671,156.286868 1011.31687,164.923295 1005.91,170.17 Z" id="Shape" fill="#1C3ED3" fill-rule="nonzero"></path>
            <path d="M991.67,215.39 C984.28,216.86 960.19,207.73 960.19,207.73 C960.19,207.73 978.97,190.1 986.36,188.63 C991.140214,187.68146 996.063353,189.355186 999.27492,193.020702 C1002.48649,196.686219 1003.49857,201.786646 1001.92992,206.400703 C1000.36127,211.014759 996.450214,214.44146 991.67,215.39 Z" id="Shape" fill="#1C3ED3" fill-rule="nonzero"></path>
            <path d="M939.8,264.39 C932.68,261.93 916.5,241.89 916.5,241.89 C916.5,241.89 941.61,236.14 948.73,238.61 C953.335154,240.205191 956.739467,244.136028 957.660568,248.921803 C958.581669,253.707579 956.879621,258.621219 953.195568,261.811804 C949.511515,265.002388 944.405154,265.985191 939.8,264.39 Z" id="Shape" fill="#1C3ED3" fill-rule="nonzero"></path>
            <path d="M892.21,292.6 C884.78,291.39 865.44,274.39 865.44,274.39 C865.44,274.39 889.22,264.49 896.66,265.71 C901.468795,266.504916 905.488222,269.80491 907.204202,274.366906 C908.920182,278.928903 908.072017,284.059826 904.979202,287.826907 C901.886387,291.593987 897.018795,293.424916 892.21,292.63 L892.21,292.6 Z" id="Shape" fill="#1C3ED3" fill-rule="nonzero"></path>
            <path d="M939.19,188.22 C939.19,195.76 952.82,217.61 952.82,217.61 C952.82,217.61 966.48,195.77 966.48,188.23 C966.614367,183.267037 964.043433,178.622469 959.766378,176.101387 C955.489323,173.580304 950.180677,173.580304 945.903622,176.101387 C941.626567,178.622469 939.055633,183.267037 939.19,188.23 L939.19,188.22 Z" id="Shape" fill="#1C3ED3" fill-rule="nonzero"></path>
            <path d="M883.96,221.92 C886.21,229.11 905.76,245.92 905.76,245.92 C905.76,245.92 912.25,220.99 910,213.8 C908.731176,208.93037 904.884216,205.154922 899.991637,203.977686 C895.099058,202.80045 889.955732,204.412685 886.61061,208.172123 C883.265489,211.931561 882.262037,217.227427 884,221.95 L883.96,221.92 Z" id="Shape" fill="#1C3ED3" fill-rule="nonzero"></path>
            <path d="M834.76,262.04 C835.76,269.51 852.2,289.35 852.2,289.35 C852.2,289.35 862.81,265.88 861.81,258.41 C861.459399,253.334536 858.315246,248.875231 853.652416,246.840221 C848.989586,244.80521 843.581949,245.532237 839.622167,248.72651 C835.662385,251.920782 833.807646,257.052161 834.81,262.04 L834.76,262.04 Z" id="Shape" fill="#1C3ED3" fill-rule="nonzero"></path>
            <path d="M1005.91,170.17 C1000.51,175.42 975.33,180.85 975.33,180.85 C975.33,180.85 981.5,155.85 986.91,150.59 C992.316868,145.343295 1000.95329,145.473132 1006.2,150.88 C1011.44671,156.286868 1011.31687,164.923295 1005.91,170.17 Z" id="Shape" fill="#000000" fill-rule="nonzero" opacity="0.25"></path>
            <path d="M991.67,215.39 C984.28,216.86 960.19,207.73 960.19,207.73 C960.19,207.73 978.97,190.1 986.36,188.63 C991.140214,187.68146 996.063353,189.355186 999.27492,193.020702 C1002.48649,196.686219 1003.49857,201.786646 1001.92992,206.400703 C1000.36127,211.014759 996.450214,214.44146 991.67,215.39 Z" id="Shape" fill="#000000" fill-rule="nonzero" opacity="0.25"></path>
            <path d="M939.8,264.39 C932.68,261.93 916.5,241.89 916.5,241.89 C916.5,241.89 941.61,236.14 948.73,238.61 C953.335154,240.205191 956.739467,244.136028 957.660568,248.921803 C958.581669,253.707579 956.879621,258.621219 953.195568,261.811804 C949.511515,265.002388 944.405154,265.985191 939.8,264.39 Z" id="Shape" fill="#000000" fill-rule="nonzero" opacity="0.25"></path>
            <path d="M892.21,292.6 C884.78,291.39 865.44,274.39 865.44,274.39 C865.44,274.39 889.22,264.49 896.66,265.71 C901.468795,266.504916 905.488222,269.80491 907.204202,274.366906 C908.920182,278.928903 908.072017,284.059826 904.979202,287.826907 C901.886387,291.593987 897.018795,293.424916 892.21,292.63 L892.21,292.6 Z" id="Shape" fill="#000000" fill-rule="nonzero" opacity="0.25"></path>
            <path d="M939.19,188.22 C939.19,195.76 952.82,217.61 952.82,217.61 C952.82,217.61 966.48,195.77 966.48,188.23 C966.614367,183.267037 964.043433,178.622469 959.766378,176.101387 C955.489323,173.580304 950.180677,173.580304 945.903622,176.101387 C941.626567,178.622469 939.055633,183.267037 939.19,188.23 L939.19,188.22 Z" id="Shape" fill="#000000" fill-rule="nonzero" opacity="0.25"></path>
            <path d="M883.96,221.92 C886.21,229.11 905.76,245.92 905.76,245.92 C905.76,245.92 912.25,220.99 910,213.8 C908.731176,208.93037 904.884216,205.154922 899.991637,203.977686 C895.099058,202.80045 889.955732,204.412685 886.61061,208.172123 C883.265489,211.931561 882.262037,217.227427 884,221.95 L883.96,221.92 Z" id="Shape" fill="#000000" fill-rule="nonzero" opacity="0.25"></path>
            <path d="M834.76,262.04 C835.76,269.51 852.2,289.35 852.2,289.35 C852.2,289.35 862.81,265.88 861.81,258.41 C861.459399,253.334536 858.315246,248.875231 853.652416,246.840221 C848.989586,244.80521 843.581949,245.532237 839.622167,248.72651 C835.662385,251.920782 833.807646,257.052161 834.81,262.04 L834.76,262.04 Z" id="Shape" fill="#000000" fill-rule="nonzero" opacity="0.25"></path>
            <path d="M835.23,314.18 C835.23,314.18 841.41002,250.38 878.230142,216.45 C893.785302,202.319901 904.330914,183.520348 908.280242,162.88 C910.087563,153.066839 910.988029,143.108186 910.970509,133.13" id="Shape" stroke="#535461" stroke-width="2"></path>
            <path d="M934.13,111.61 C931.31,118.61 910.49,133.77 910.49,133.77 C910.49,133.77 906,108.39 908.82,101.39 C910.642055,96.868804 914.737732,93.663101 919.56423,92.9804485 C924.390727,92.297796 929.214786,94.241905 932.21923,98.0804485 C935.223673,101.918992 935.952055,107.068804 934.13,111.59 L934.13,111.61 Z" id="Shape" fill="#1C3ED3" fill-rule="nonzero"></path>
            <path d="M939.44,158.75 C933.28,163.09 907.56,164.5 907.56,164.5 C907.56,164.5 917.56,140.77 923.74,136.44 C927.725298,133.635465 932.904066,133.170098 937.325514,135.2192 C941.746961,137.268302 944.739364,141.520564 945.175514,146.3742 C945.611664,151.227837 943.425298,155.945465 939.44,158.75 Z" id="Shape" fill="#1C3ED3" fill-rule="nonzero"></path>
            <path d="M911.86,224.54 C904.35,225.17 881.44,213.41 881.44,213.41 C881.44,213.41 902.07,197.98 909.58,197.35 C914.437026,196.942717 919.142386,199.157565 921.923616,203.160231 C924.704846,207.162897 925.139412,212.345282 923.063616,216.755231 C920.98782,221.16518 916.717026,224.132717 911.86,224.54 Z" id="Shape" fill="#1C3ED3" fill-rule="nonzero"></path>
            <path d="M879.79,269.61 C872.5,271.51 847.92,263.78 847.92,263.78 C847.92,263.78 865.65,245.09 872.92,243.2 C880.21292,241.308425 887.658425,245.68708 889.55,252.98 C891.441575,260.27292 887.06292,267.718425 879.77,269.61 L879.79,269.61 Z" id="Shape" fill="#1C3ED3" fill-rule="nonzero"></path>
            <path d="M880.44,155.15 C883.49,162.04 904.81,176.49 904.81,176.49 C904.81,176.49 908.44,150.99 905.39,144.1 C902.352434,137.196441 894.293559,134.062434 887.39,137.1 C880.486441,140.137566 877.352434,148.196441 880.39,155.1 L880.44,155.15 Z" id="Shape" fill="#1C3ED3" fill-rule="nonzero"></path>
            <path d="M843.6,208.39 C848.6,214.05 873.24,221.47 873.24,221.47 C873.24,221.47 869.07,196.05 864.1,190.38 C859.129437,184.719082 850.510919,184.159438 844.850001,189.130001 C839.189082,194.100563 838.629438,202.719081 843.6,208.38 L843.6,208.39 Z" id="Shape" fill="#1C3ED3" fill-rule="nonzero"></path>
            <path d="M814.88,264.95 C818.88,271.37 841.88,282.85 841.88,282.85 C841.88,282.85 842.13,257.09 838.13,250.67 C834.110531,244.42775 825.838947,242.5428 819.511783,246.427232 C813.184619,250.311665 811.122397,258.540843 814.87,264.95 L814.88,264.95 Z" id="Shape" fill="#1C3ED3" fill-rule="nonzero"></path>
            <path d="M405.65,601.69 C405.65,601.69 366.65,553.36 369.1,504.86 C370.265106,484.527808 364.805363,464.366057 353.54,447.4 C348.127178,439.389011 341.991515,431.890983 335.21,425" id="Shape" stroke="#535461" stroke-width="2"></path>
            <path d="M337.630027,396.155027 C340.430027,402.905027 336.340027,427.535027 336.340027,427.535027 C336.340027,427.535027 316.020027,413.035027 313.220027,406.285027 C310.425466,399.538869 313.628869,391.804588 320.375027,389.010027 C327.121185,386.215466 334.855466,389.418869 337.650027,396.165027 L337.630027,396.155027 Z" id="Shape" fill="#6696CD" fill-rule="nonzero"></path>
            <path d="M372.347048,423.792163 C371.027048,430.972163 354.197048,449.402163 354.197048,449.402163 C354.197048,449.402163 344.987048,426.162163 346.347048,419.002163 C347.146675,414.303788 350.413324,410.39951 354.896898,408.783436 C359.380472,407.167363 364.386838,408.089689 368.000135,411.197456 C371.613432,414.305222 373.274261,419.117294 372.347048,423.792163 Z" id="Shape" fill="#6696CD" fill-rule="nonzero"></path>
            <path d="M397.82,487.441361 C393.05,492.981361 369.21,500.391361 369.21,500.391361 C369.21,500.391361 373.01,475.721361 377.78,470.181361 C382.628363,465.006593 390.696003,464.578774 396.064461,469.211753 C401.432919,473.844732 402.189865,481.88817 397.78,487.441361 L397.82,487.441361 Z" id="Shape" fill="#6696CD" fill-rule="nonzero"></path>
            <path d="M154.07,511.19 C150.31,517.45 128.07,528.79 128.07,528.79 C128.07,528.79 127.64,503.79 131.41,497.57 C135.21214,491.406919 143.264988,489.449779 149.471651,493.180351 C155.678315,496.910923 157.728504,504.940585 154.07,511.19 Z" id="Shape" fill="#1C3ED3" fill-rule="nonzero"></path>
            <path d="M329.22885,461.392343 C336.01885,464.082343 360.57885,459.612343 360.57885,459.612343 C360.57885,459.612343 345.77885,439.512343 338.99885,436.812343 C332.268564,434.343831 324.796642,437.68473 322.148744,444.346482 C319.500847,451.008234 322.640411,458.566961 329.22885,461.392343 Z" id="Shape" fill="#6696CD" fill-rule="nonzero"></path>
            <path d="M339.472912,523.407977 C346.752912,523.947977 368.852912,512.337977 368.852912,512.337977 C368.852912,512.337977 348.712912,497.577977 341.432912,497.037977 C336.722365,496.680711 332.179041,498.863631 329.514366,502.764451 C326.849692,506.665272 326.468494,511.691366 328.514366,515.949452 C330.560239,520.207538 334.722365,523.050712 339.432912,523.407977 L339.472912,523.407977 Z" id="Shape" fill="#6696CD" fill-rule="nonzero"></path>
            <path d="M358.239954,582.024954 C365.319954,583.794954 389.069954,576.024954 389.069954,576.024954 C389.069954,576.024954 371.709954,558.134954 364.629954,556.394954 C357.54414,554.630404 350.369503,558.94414 348.604954,566.029954 C346.840404,573.115767 351.15414,580.290404 358.239954,582.054954 L358.239954,582.024954 Z" id="Shape" fill="#6696CD" fill-rule="nonzero"></path>
            <path d="M986.63,653.39 C986.63,653.39 994.26,663.39 983.11,678.39 C971.96,693.39 962.76,706.17 966.48,715.57 C966.48,715.57 983.31,687.57 997,687.2 C1010.69,686.83 1001.7,670.21 986.63,653.39 Z" id="Shape" fill="#1C3ED3" fill-rule="nonzero"></path>
            <path d="M986.63,653.39 C987.295139,654.354466 987.820353,655.40826 988.19,656.52 C1001.55,672.22 1008.67,686.87 995.83,687.24 C983.83,687.58 969.51,708.97 966.07,714.38 C966.18406,714.797192 966.320933,715.20781 966.48,715.61 C966.48,715.61 983.31,687.61 997,687.24 C1010.69,686.87 1001.7,670.21 986.63,653.39 Z" id="Shape" fill="#000000" fill-rule="nonzero" opacity="0.1"></path>
            <path d="M1000.82,666.1 C1000.82,669.62 1000.42,672.46 999.94,672.46 C999.46,672.46 999.06,669.62 999.06,666.1 C999.06,662.58 999.55,664.25 1000.06,664.25 C1000.57,664.25 1000.82,662.59 1000.82,666.1 Z" id="Shape" fill="#FFD037" fill-rule="nonzero"></path>
            <path d="M1005.68,670.3 C1002.6,671.98 999.91,672.99 999.68,672.57 C999.45,672.15 1001.76,670.43 1004.84,668.75 C1007.92,667.07 1006.71,668.29 1006.94,668.75 C1007.17,669.21 1008.77,668.62 1005.68,670.3 Z" id="Shape" fill="#FFD037" fill-rule="nonzero"></path>
            <path d="M946.33,653.39 C946.33,653.39 938.7,663.39 949.85,678.39 C961,693.39 970.2,706.17 966.48,715.57 C966.48,715.57 949.65,687.57 935.96,687.2 C922.27,686.83 931.26,670.21 946.33,653.39 Z" id="Shape" fill="#1C3ED3" fill-rule="nonzero"></path>
            <path d="M946.33,653.39 C945.659943,654.351556 945.134363,655.406085 944.77,656.52 C931.4,672.22 924.29,686.87 937.13,687.24 C949.13,687.58 963.45,708.97 966.89,714.38 C966.77,714.79 966.64,715.2 966.48,715.61 C966.48,715.61 949.65,687.61 935.96,687.24 C922.27,686.87 931.26,670.21 946.33,653.39 Z" id="Shape" fill="#000000" fill-rule="nonzero" opacity="0.1"></path>
            <path d="M932.13,666.1 C932.13,669.62 932.53,672.46 933.01,672.46 C933.49,672.46 933.89,669.62 933.89,666.1 C933.89,662.58 933.4,664.25 932.89,664.25 C932.38,664.25 932.13,662.59 932.13,666.1 Z" id="Shape" fill="#FFD037" fill-rule="nonzero"></path>
            <path d="M927.27,670.3 C930.36,671.98 933.05,672.99 933.27,672.57 C933.49,672.15 931.19,670.43 928.11,668.75 C925.03,667.07 926.24,668.29 926.01,668.75 C925.78,669.21 924.19,668.62 927.27,670.3 Z" id="Shape" fill="#FFD037" fill-rule="nonzero"></path>
            <ellipse id="Oval" fill="#1C3ED3" fill-rule="nonzero" opacity="0.1" cx="966.48" cy="779.69" rx="79.78" ry="12.24"></ellipse>
            <path d="M1007.54,702.16 L1007.16,705.27 L1006.62,709.67 L1006.4,711.51 L1005.87,715.91 L1005.63,717.75 L1005.1,722.15 L998.99,772.15 C998.45,776.62 991.15,780.15 982.34,780.15 L950.62,780.15 C941.81,780.15 934.52,776.67 933.97,772.15 L927.86,722.15 L927.32,717.75 L927.1,715.91 L926.56,711.51 L926.33,709.67 L925.8,705.27 L925.41,702.16 C925.11,699.63 929.06,697.5 934.04,697.5 L998.92,697.5 C1003.9,697.5 1007.85,699.63 1007.54,702.16 Z" id="Shape" fill="#65617D" fill-rule="nonzero"></path>
            <polygon id="Shape" fill="#9D9CB5" fill-rule="nonzero" points="1007.16 705.27 1006.62 709.67 926.33 709.67 925.8 705.27"></polygon>
            <polygon id="Shape" fill="#9D9CB5" fill-rule="nonzero" points="1006.4 711.51 1005.86 715.91 927.1 715.91 926.55 711.51"></polygon>
            <polygon id="Shape" fill="#9D9CB5" fill-rule="nonzero" points="1005.63 717.75 1005.1 722.14 927.86 722.14 927.32 717.75"></polygon>
            <path d="M803.68,185.96 L802.84,185.96 C804.16,184.46 804.84,182.96 804.73,181.63 L797.13,174.03 L800.03,167.53 L790.26,167.53 L792.07,162.46 L786.28,162.46 L722.22,183.8 C722.22,183.8 722.15,184.69 722.22,185.96 L680.97,185.96 L680.97,371.81 L860.13,371.81 L860.13,185.96 L803.68,185.96 Z" id="Shape" fill="url(#linearGradient-1)" fill-rule="nonzero"></path>
            <rect id="Rectangle-path" fill="#F6F7F9" fill-rule="nonzero" x="682.3" y="186.61" width="176.46" height="183.24"></rect>
            <path d="M803.19,186.61 C794.83,198.92 738.99,215.13 738.99,215.13 L739.34,202.3 L729.01,202.3 C729.591661,199.761988 728.425855,197.145037 726.15,195.88 C723.15,194.23 722.86,188.88 722.9,186.61 L803.19,186.61 Z" id="Shape" fill="#000000" fill-rule="nonzero" opacity="0.1"></path>
            <path d="M786.04,163.44 L722.95,184.44 C722.95,184.44 722.23,192.64 726.15,194.77 C728.420676,196.039772 729.584679,198.652671 729.01,201.19 L739.34,201.19 L738.99,214.02 C738.99,214.02 805.29,194.77 804.22,182.3 L796.74,174.81 L799.59,168.39 L789.96,168.39 L791.75,163.39 L786.04,163.44 Z" id="Shape" fill="#9D9CB5" fill-rule="nonzero"></path>
            <g id="Group" opacity="0.35" transform="translate(714.000000, 246.000000)" fill="#1C3ED3" fill-rule="nonzero">
                <rect id="Rectangle-path" opacity="0.2" x="0.92" y="0.01" width="111.22" height="3.12"></rect>
            </g>
            <g id="Group" opacity="0.35" transform="translate(714.000000, 262.000000)" fill="#1C3ED3" fill-rule="nonzero">
                <rect id="Rectangle-path" opacity="0.2" x="0.92" y="0.46" width="111.22" height="3.12"></rect>
            </g>
            <g id="Group" opacity="0.35" transform="translate(714.000000, 278.000000)" fill="#1C3ED3" fill-rule="nonzero">
                <rect id="Rectangle-path" opacity="0.2" x="0.92" y="0.9" width="111.22" height="3.12"></rect>
            </g>
            <g id="Group" opacity="0.35" transform="translate(714.000000, 295.000000)" fill="#1C3ED3" fill-rule="nonzero">
                <rect id="Rectangle-path" opacity="0.2" x="0.92" y="0.34" width="111.22" height="3.12"></rect>
            </g>
            <g id="Group" opacity="0.35" transform="translate(714.000000, 311.000000)" fill="#1C3ED3" fill-rule="nonzero">
                <rect id="Rectangle-path" opacity="0.2" x="0.92" y="0.78" width="111.22" height="3.12"></rect>
            </g>
            <g id="Group" opacity="0.35" transform="translate(714.000000, 328.000000)" fill="#1C3ED3" fill-rule="nonzero">
                <rect id="Rectangle-path" opacity="0.2" x="0.92" y="0.23" width="111.22" height="3.12"></rect>
            </g>
            <path d="M205.8,170.9 L205.38,170.9 C208.54,162.8 211.46,154.9 211.33,153.39 C211.05,150.39 205.04,156.91 204.76,155.28 C204.48,153.65 204.76,147.47 202.03,147.47 C199.3,147.47 197.65,150.68 196.03,150.68 C194.41,150.68 187.82,149.6 187.82,149.6 L179.43,170.9 L116.23,170.9 L116.23,369.39 L273.07,369.39 L273.07,170.9 L205.8,170.9 Z" id="Shape" fill="url(#linearGradient-2)" fill-rule="nonzero"></path>
            <rect id="Rectangle-path" fill="#F6F7F9" fill-rule="nonzero" x="117.99" y="172" width="153.29" height="196.06"></rect>
            <path d="M205.55,172 C202.32,180.39 198.68,189.23 197.85,191.34 C196.24,195.34 195.18,193.21 193.3,192.68 C191.42,192.15 189.03,193.21 187.96,192.68 C186.89,192.15 180.61,192.68 180.61,192.68 C180.680192,191.697919 180.680192,190.712081 180.61,189.73 C180.47,188.67 173.25,189.73 173.25,189.73 L180.13,172 L205.55,172 Z" id="Shape" fill="#000000" fill-rule="nonzero" opacity="0.1"></path>
            <path d="M187.96,150.97 L173.25,188.67 C173.25,188.67 180.47,187.6 180.6,188.67 C180.675496,189.648546 180.675496,190.631454 180.6,191.61 C180.6,191.61 186.89,191.07 187.96,191.61 C189.03,192.15 191.43,191.07 193.3,191.61 C195.17,192.15 196.24,194.28 197.85,190.27 C199.46,186.26 211.22,157.65 210.95,154.71 C210.68,151.77 204.8,158.19 204.53,156.58 C204.26,154.97 204.53,148.87 201.86,148.87 C199.19,148.87 197.58,152.04 195.98,152.04 C194.38,152.04 187.96,150.97 187.96,150.97 Z" id="Shape" fill="#9D9CB5" fill-rule="nonzero"></path>
            <g id="Group" opacity="0.35" transform="translate(139.000000, 224.000000)" fill="#1C3ED3" fill-rule="nonzero">
                <rect id="Rectangle-path" opacity="0.2" x="0.03" y="0.04" width="111.22" height="3.12"></rect>
            </g>
            <g id="Group" opacity="0.35" transform="translate(139.000000, 235.000000)" fill="#1C3ED3" fill-rule="nonzero">
                <rect id="Rectangle-path" opacity="0.2" x="0.03" y="0.81" width="111.22" height="3.12"></rect>
            </g>
            <g id="Group" opacity="0.35" transform="translate(139.000000, 247.000000)" fill="#1C3ED3" fill-rule="nonzero">
                <rect id="Rectangle-path" opacity="0.2" x="0.03" y="0.57" width="111.22" height="3.12"></rect>
            </g>
            <g id="Group" opacity="0.35" transform="translate(139.000000, 259.000000)" fill="#1C3ED3" fill-rule="nonzero">
                <rect id="Rectangle-path" opacity="0.2" x="0.03" y="0.34" width="111.22" height="3.12"></rect>
            </g>
            <g id="Group" opacity="0.35" transform="translate(139.000000, 271.000000)" fill="#1C3ED3" fill-rule="nonzero">
                <rect id="Rectangle-path" opacity="0.2" x="0.03" y="0.1" width="111.22" height="3.12"></rect>
            </g>
            <g id="Group" opacity="0.35" transform="translate(139.000000, 282.000000)" fill="#1C3ED3" fill-rule="nonzero">
                <rect id="Rectangle-path" opacity="0.2" x="0.03" y="0.86" width="111.22" height="3.12"></rect>
            </g>
            <path d="M784.25,464.39 L783.83,464.39 C787.71,454.39 791.29,444.62 791.12,442.79 C790.79,439.12 783.41,447.13 783.12,445.13 C782.83,443.13 783.12,435.49 779.77,435.49 C776.42,435.49 774.41,439.49 772.4,439.49 C770.39,439.49 762.34,438.15 762.34,438.15 L752,464.39 L674.55,464.39 L674.55,709.28 L866.78,709.28 L866.78,464.39 L784.25,464.39 Z" id="Shape" fill="url(#linearGradient-3)" fill-rule="nonzero"></path>
            <rect id="Rectangle-path" fill="#F6F7F9" fill-rule="nonzero" x="676.09" y="466.09" width="188.88" height="241.6"></rect>
            <path d="M783.88,466.09 C779.94,476.35 775.52,487.09 774.49,489.67 C772.49,494.61 771.2,491.97 768.89,491.32 C766.58,490.67 763.62,491.97 762.3,491.32 C760.98,490.67 753.24,491.32 753.24,491.32 C753.326437,490.111544 753.326437,488.898456 753.24,487.69 C753.07,486.38 744.18,487.69 744.18,487.69 L752.61,466.09 L783.88,466.09 Z" id="Shape" fill="#000000" fill-rule="nonzero" opacity="0.1"></path>
            <path d="M762.3,440.17 L744.18,486.62 C744.18,486.62 753.07,485.3 753.24,486.62 C753.326472,487.825117 753.326472,489.034883 753.24,490.24 C753.24,490.24 760.98,489.59 762.3,490.24 C763.62,490.89 766.58,489.59 768.89,490.24 C771.2,490.89 772.51,493.54 774.49,488.6 C776.47,483.66 790.96,448.4 790.63,444.78 C790.3,441.16 783.05,449.06 782.72,447.09 C782.39,445.12 782.72,437.58 779.43,437.58 C776.14,437.58 774.16,441.49 772.18,441.49 C770.2,441.49 762.3,440.17 762.3,440.17 Z" id="Shape" fill="#9D9CB5" fill-rule="nonzero"></path>
            <g id="Group" opacity="0.35" transform="translate(714.000000, 533.000000)" fill="#1C3ED3" fill-rule="nonzero">
                <rect id="Rectangle-path" opacity="0.2" x="0.92" y="0.6" width="111.22" height="7.93"></rect>
            </g>
            <g id="Group" opacity="0.35" transform="translate(714.000000, 585.000000)" fill="#1C3ED3" fill-rule="nonzero">
                <rect id="Rectangle-path" opacity="0.2" x="0.92" y="0.11" width="111.22" height="7.93"></rect>
            </g>
            <g id="Group" opacity="0.35" transform="translate(714.000000, 636.000000)" fill="#1C3ED3" fill-rule="nonzero">
                <rect id="Rectangle-path" opacity="0.2" x="0.92" y="0.63" width="111.22" height="7.93"></rect>
            </g>
            <polygon id="Shape" fill="url(#linearGradient-4)" fill-rule="nonzero" points="196.46 472.76 109.79 472.76 109.79 705.74 313.36 705.74 313.36 472.76 237.97 472.76"></polygon>
            <rect id="Rectangle-path" fill="#F6F7F9" fill-rule="nonzero" x="111.94" y="473.94" width="199.27" height="230.28"></rect>
            <path d="M223.12,448.59 L205,495.04 C205,495.04 213.89,493.72 214.06,495.04 C214.146472,496.245117 214.146472,497.454883 214.06,498.66 C214.06,498.66 221.8,498.01 223.12,498.66 C224.44,499.31 227.4,498.01 229.71,498.66 C232.02,499.31 233.33,501.96 235.31,497.02 C237.29,492.08 251.78,456.82 251.45,453.2 C251.12,449.58 243.87,457.48 243.54,455.51 C243.21,453.54 243.54,446 240.25,446 C236.96,446 234.98,449.91 233,449.91 C231.02,449.91 223.12,448.59 223.12,448.59 Z" id="Shape" fill="#9D9CB5" fill-rule="nonzero"></path>
            <g id="Group" opacity="0.35" transform="translate(155.000000, 529.000000)" fill="#1C3ED3" fill-rule="nonzero">
                <rect id="Rectangle-path" opacity="0.2" x="0.96" y="0.64" width="111.22" height="7.93"></rect>
            </g>
            <g id="Group" opacity="0.35" transform="translate(155.000000, 545.000000)" fill="#1C3ED3" fill-rule="nonzero">
                <rect id="Rectangle-path" opacity="0.2" x="0.96" y="0.41" width="111.22" height="7.93"></rect>
            </g>
            <g id="Group" opacity="0.35" transform="translate(155.000000, 561.000000)" fill="#1C3ED3" fill-rule="nonzero">
                <rect id="Rectangle-path" opacity="0.2" x="0.96" y="0.19" width="111.22" height="7.93"></rect>
            </g>
            <g id="Group" opacity="0.35" transform="translate(155.000000, 576.000000)" fill="#1C3ED3" fill-rule="nonzero">
                <rect id="Rectangle-path" opacity="0.2" x="0.96" y="0.96" width="111.22" height="7.93"></rect>
            </g>
            <g id="Group" opacity="0.35" transform="translate(237.000000, 594.000000)" fill="#1C3ED3" fill-rule="nonzero">
                <rect id="Rectangle-path" opacity="0.2" x="0.42" y="0.52" width="29.77" height="24.06"></rect>
            </g>
            <g id="Group" opacity="0.35" transform="translate(155.000000, 624.000000)" fill="#1C3ED3" fill-rule="nonzero">
                <rect id="Rectangle-path" opacity="0.2" x="0.96" y="0.28" width="29.77" height="24.06"></rect>
            </g>
            <path d="M523.86,472.39 L523.58,472.39 C526.82,459.72 529.26,449.63 529.26,449.63 L515.44,456.13 C515.44,456.13 505.63,443.13 502,445.3 C498.37,447.47 490.4,452.88 490.4,452.88 L479.82,447.46 L475.77,472.39 L392.22,472.39 L392.22,652.28 L397.59,655.49 C402.02,653.9 409.31,651.2 409.31,651.2 L405.96,660.5 L408.22,661.84 L412.03,658.39 L413.44,664.98 L417.97,667.69 L425.12,663.14 L423.12,670.8 L429.83,674.8 L449.34,667.47 L443.46,682.95 L447.33,685.27 L456.16,683.72 C456.16,683.72 455.76,686.81 455.51,690.16 L464.37,695.46 C468,694.05 471.42,692.66 471.42,692.66 C471.42,692.66 471.07,696.04 470.91,699.36 L476.85,702.92 C481.54,700.18 487.51,696.45 487.51,696.45 L482.51,705.75 L595.41,705.75 L595.41,472.39 L523.86,472.39 Z" id="Shape" fill="url(#linearGradient-5)" fill-rule="nonzero"></path>
            <path d="M593.19,473.94 L593.19,704.22 L482.46,704.22 L487.4,695.05 C487.4,695.05 481.55,698.72 476.95,701.43 L471.13,697.91 C471.29,694.64 471.64,691.3 471.64,691.3 C471.64,691.3 468.28,692.67 464.72,694.06 L456.03,688.83 C456.28,685.53 456.66,682.48 456.66,682.48 L448.01,684.01 L444.22,681.72 L449.98,666.44 L430.85,673.68 L424.26,669.68 L426.18,662.12 L419.18,666.61 L414.74,663.94 L413.36,657.44 L409.62,660.86 L407.4,659.53 L410.69,650.36 C410.69,650.36 403.54,653.02 399.19,654.59 L393.93,651.43 L393.93,473.94 L593.19,473.94 Z" id="Shape" fill="#F6F7F9" fill-rule="nonzero"></path>
            <g id="Group" opacity="0.35" transform="translate(437.000000, 545.000000)" fill="#1C3ED3" fill-rule="nonzero">
                <rect id="Rectangle-path" opacity="0.2" x="0.94" y="0.41" width="111.22" height="7.93"></rect>
            </g>
            <g id="Group" opacity="0.35" transform="translate(437.000000, 569.000000)" fill="#1C3ED3" fill-rule="nonzero">
                <rect id="Rectangle-path" opacity="0.2" x="0.94" y="0.12" width="111.22" height="7.93"></rect>
            </g>
            <g id="Group" opacity="0.35" transform="translate(437.000000, 592.000000)" fill="#1C3ED3" fill-rule="nonzero">
                <rect id="Rectangle-path" opacity="0.2" x="0.94" y="0.82" width="111.22" height="7.93"></rect>
            </g>
            <g id="Group" opacity="0.35" transform="translate(437.000000, 616.000000)" fill="#1C3ED3" fill-rule="nonzero">
                <rect id="Rectangle-path" opacity="0.2" x="0.94" y="0.53" width="22.28" height="7.93"></rect>
            </g>
            <path d="M523.01,473.94 C517.59,495.32 509.69,524.94 507.63,524.42 C504.43,523.55 499.43,517.42 499.43,517.42 C499.43,517.42 487.67,528.47 481.97,522.77 C476.27,517.07 468.42,520.98 468.42,520.98 L476.02,473.93 L523.01,473.94 Z" id="Shape" fill="#000000" fill-rule="nonzero" opacity="0.1"></path>
            <path d="M479.83,449.39 L468.42,519.97 C468.42,519.97 476.26,516.05 481.96,521.76 C487.66,527.47 499.43,516.39 499.43,516.39 C499.43,516.39 504.43,522.51 507.63,523.39 C510.83,524.27 528.31,451.53 528.31,451.53 L514.76,457.95 C514.76,457.95 505.14,445.11 501.57,447.25 C498,449.39 490.2,454.74 490.2,454.74 L479.83,449.39 Z" id="Shape" fill="#9D9CB5" fill-rule="nonzero"></path>
            <path d="M573.03,141.45 L573.03,134.68 L466.91,134.68 C462.04,134.68 465.02,141.45 465.02,141.45 L407.36,141.45 L407.36,292.39 L660.46,292.39 L660.46,141.39 L573.03,141.45 Z" id="Shape" fill="url(#linearGradient-6)" fill-rule="nonzero"></path>
            <rect id="Rectangle-path" fill="#F6F7F9" fill-rule="nonzero" x="408.96" y="142.17" width="249.98" height="149.19"></rect>
            <path d="M572.59,166.5 L473.4,166.5 C473.4,166.5 472.33,155 475.81,152.87 C479.29,150.74 465.91,143.24 465.91,143.24 C465.761858,142.89021 465.631688,142.533077 465.52,142.17 L572.59,142.17 L572.59,145.65 C572.59,145.65 586.23,157.68 572.59,166.5 Z" id="Shape" fill="#000000" fill-rule="nonzero" opacity="0.1"></path>
            <path d="M467.78,135.49 L572.59,135.49 L572.59,144.58 C572.59,144.58 586.23,156.58 572.59,165.43 L473.4,165.43 C473.4,165.43 472.33,153.93 475.81,151.8 C479.29,149.67 465.91,142.17 465.91,142.17 C465.91,142.17 462.97,135.49 467.78,135.49 Z" id="Shape" fill="#9D9CB5" fill-rule="nonzero"></path>
            <g id="Group" opacity="0.35" transform="translate(439.000000, 188.000000)" fill="#1C3ED3" fill-rule="nonzero">
                <rect id="Rectangle-path" opacity="0.2" x="0.67" y="0.96" width="188.58" height="3.12"></rect>
            </g>
            <g id="Group" opacity="0.35" transform="translate(439.000000, 200.000000)" fill="#1C3ED3" fill-rule="nonzero">
                <rect id="Rectangle-path" opacity="0.2" x="0.67" y="0.72" width="112.65" height="3.12"></rect>
            </g>
            <g id="Group" opacity="0.35" transform="translate(439.000000, 212.000000)" fill="#1C3ED3" fill-rule="nonzero">
                <rect id="Rectangle-path" opacity="0.2" x="0.67" y="0.49" width="188.58" height="3.12"></rect>
            </g>
            <g id="Group" opacity="0.35" transform="translate(439.000000, 224.000000)" fill="#1C3ED3" fill-rule="nonzero">
                <rect id="Rectangle-path" opacity="0.2" x="0.67" y="0.25" width="188.58" height="3.12"></rect>
            </g>
            <g id="Group" opacity="0.35" transform="translate(439.000000, 236.000000)" fill="#1C3ED3" fill-rule="nonzero">
                <rect id="Rectangle-path" opacity="0.2" x="0.67" y="0.01" width="188.58" height="3.12"></rect>
            </g>
            <path d="M705.82,830.66 C704.03,823.04 702.93,816.36 702.93,816.36 C702.93,816.36 703.34,808.07 699.62,801.85 L699.62,799.78 L699.62,784.47 C700.674644,781.697477 701.966082,779.020923 703.48,776.47 C706.24,771.65 703.48,754.01 703.48,754.01 C703.48,754.01 693.26,729.14 695.75,713.37 C698.24,697.6 674.75,643.32 674.75,643.32 C674.894401,638.082776 675.635863,632.879125 676.96,627.81 C677.203808,626.744784 677.304695,625.651847 677.26,624.56 C677.26,624.43 677.26,624.3 677.26,624.16 L677.26,624.29 C676.91,613.89 668.69,594.39 668.69,594.39 L669.79,557.22 C669.79,557.22 675.04,535.3 666.48,505.89 C663.48,495.62 661.57,487.41 660.36,481.07 C660.22,480.35 660.09,479.66 659.97,479 C677.6,476.31 691.06,474.07 691.06,474.07 C691.06,474.07 680.83,431.27 673.93,423.79 C667.03,416.31 661.5,392.79 661.5,392.79 C661.5,392.79 657.9,362.58 663.71,353.79 C669.52,345 670.33,329.72 670.33,329.72 C670.33,329.72 683.59,320.1 685.25,315.82 C686.91,311.54 689.67,301.92 689.67,296.82 C689.67,291.72 688.01,287.19 688.57,284.52 C689.13,281.85 684.7,271.69 686.91,266.87 C687.48417,265.390035 687.782424,263.817423 687.79,262.23 C687.795556,262.183499 687.795556,262.136501 687.79,262.09 C687.79,262.09 687.79,262.09 687.79,262.04 C687.804724,257.828765 687.412907,253.625942 686.62,249.49 C686.62,249.49 680.62,244.2 673.51,242.49 L673.22,241.34 L672.47,238.34 C672.047741,238.056532 671.610433,237.79615 671.16,237.56 L671.16,236.47 L671.04,232.13 L673.12,222.36 C677.19,205.36 654.54,202.85 654.54,202.85 C653.182264,200.231287 650.896652,198.213102 648.13,197.19 C643.57,195.58 647.37,222.73 649.5,224.46 C651.11,225.77 656.06,234.28 658.44,238.46 L658.83,239.15 C658.468463,239.486413 658.134088,239.850882 657.83,240.24 L658.69,246.13 L658.82,247.03 C657.321363,248.899028 656.105076,250.977835 655.21,253.2 C655.21,253.2 659.36,257.74 658.53,262.82 C657.7,267.9 659.8,274.23 659.9,274.58 C659.65,274.3 656.74,271.14 653.83,271.91 C650.92,272.68 642.83,275.12 642.83,275.12 C642.83,275.12 636.75,276.19 637.31,277.53 C637.87,278.87 633.16,284.75 633.16,284.75 L616.83,269.27 C616.67,268.81 616.51,268.35 616.36,267.87 C615.679215,265.658466 615.203868,263.388852 614.94,261.09 C616.7184,260.665593 618.463121,260.110758 620.16,259.43 C621.877335,258.844554 623.427933,257.853131 624.68,256.54 C626.32,254.54 626.68,251.93 627.31,249.54 C628.6,244.78 631.38,240.54 633.37,236.03 C636.731352,228.411469 637.861804,219.995494 636.63,211.76 C636.372414,209.22683 635.51173,206.792226 634.12,204.66 C631.46,200.99 626.62,199.5 623.12,196.57 C619.62,193.64 617.34,189.18 613.24,186.98 C609.54,184.98 605.02,185.23 600.85,185.91 C592.677606,187.255455 584.827162,190.110778 577.7,194.33 C575.32,195.74 572.7,197.33 569.96,196.87 C567.62,196.45 565.9,194.57 564.39,192.78 C564.4087,192.701999 564.432076,192.625194 564.46,192.55 L564.28,192.34 C562.550572,196.178796 561.683562,200.350001 561.74,204.56 C561.74,205.21 561.74,205.86 561.82,206.56 C561.82,206.79 561.82,207.02 561.82,207.25 C561.834788,207.436374 561.834788,207.623626 561.82,207.81 C561.820151,208.10085 561.779763,208.390301 561.7,208.67 C561.352729,209.50696 560.831155,210.260344 560.17,210.88 C559.671281,211.440609 559.226013,212.046574 558.84,212.69 C558.91,212.47 558.98,212.25 559.06,212.03 C558.018037,213.547117 557.431651,215.330563 557.37,217.17 C557.280814,218.513632 557.722471,219.838606 558.6,220.86 C559.413985,221.659241 560.304984,222.37606 561.26,223 C558.953666,235.848871 564.901006,248.773359 576.16,255.38 C576.35,255.84 576.53,256.31 576.72,256.78 C578.8,262.28 580.37,268.68 579.72,274.59 C579.66,275.03 579.6,275.46 579.52,275.89 C579.31,276.11 579.11,276.34 578.93,276.57 C578.93,276.57 551.93,276.83 545.62,271.08 C539.31,265.33 529.62,285.08 529.62,285.08 C529.62,285.08 519.95,286.96 518.02,285.08 C516.09,283.2 504.76,284.82 504.76,284.82 C504.76,284.82 497.85,278.13 487.91,278.67 C484.134453,275.800651 479.969243,273.484027 475.54,271.79 L475.23,271.68 C473.285074,270.977448 471.208662,270.714481 469.15,270.91 C469.15,270.91 455.89,259.91 452.03,254.07 C448.17,248.23 429.74,226.37 429.66,226.27 L429.59,225.27 L429.38,222.09 C428.83405,222.176016 428.282638,222.222802 427.73,222.23 L427.36,221.13 C426.30211,218.027671 424.99103,215.017539 423.44,212.13 C423.44,212.13 423.44,208.13 424.61,207.13 C425.78,206.13 424.13,191.42 424.13,191.42 C424.13,191.42 412.18,163.48 401.48,184.34 C401.48,184.34 381.25,197.83 398.23,213.54 C398.23,213.54 405,216.83 405.96,219.43 C406.59,221.12 408.89,225.83 410.44,228.97 C410.7,229.49 410.93,229.97 411.13,230.37 L410.94,230.53 L411.19,233.15 L411.29,234.15 C408.09,235.97 405.92,237.76 406.45,239.15 C407.39518,241.465665 408.04366,243.891584 408.38,246.37 C408.38,246.37 431.86,275.78 434.9,288.37 C434.9,288.37 497.9,325.8 518.6,328.48 L515.01,347.19 C515.01,347.19 513.9,358.42 514.18,362.43 C514.46,366.44 511.69,384.63 511.69,384.63 C511.69,384.63 508.1,411.36 505.06,415.1 C502.02,418.84 502.58,434.89 502.58,434.89 C501.848495,442.571302 500.460083,450.17579 498.43,457.62 C495.43,467.78 497.61,480.34 497.61,480.34 C497.61,480.34 487.11,504.41 512.25,488.1 C512.25,488.1 524.59,487.33 538.8,486.85 C538.8,487.31 538.8,487.78 538.8,488.26 C538.8,490.09 538.74,492.07 538.72,494.16 C538.53,507.94 538.45,526.93 539.07,541.3 C540.17,566.7 547.91,616.97 547.91,616.97 L547.91,642.22 C547.410625,644.593862 547.165907,647.014222 547.18,649.44 C547.009785,658.341587 549.371423,667.108432 553.99,674.72 L555.7,691.39 C555.7,691.39 560.24,702.49 560.33,709.12 C560.308409,709.66131 560.241509,710.19986 560.13,710.73 C559.960777,711.579118 559.886985,712.44449 559.91,713.31 C559.65,720.96 564.26,739.25 564.26,739.25 C564.26,739.25 564.54,757.7 567.26,758.77 C569.62,759.68 564.11,769.4 562.46,772.19 C562.46,772.01 562.39,771.84 562.36,771.66 C562.15,772.02 562.02,772.22 562.02,772.22 C561.452219,773.708078 561.160778,775.287282 561.16,776.88 C560.840558,779.452826 562.031864,781.979484 564.22,783.37 C569.47,786.58 572.29,789.25 567.84,790.37 C566.20066,790.619978 564.575198,790.953749 562.97,791.37 C562.89,791.16 562.81,790.95 562.74,790.75 C561.461035,791.278103 560.709174,792.612449 560.92,793.98 C560.8,795.33 561.25,797.3 562.57,800.24 C566.99,810.13 570.05,813.88 570.05,813.88 L572.17,813.64 C571.846876,814.443757 571.434277,815.208575 570.94,815.92 C570.132795,817.079997 569.059532,818.029818 567.81,818.69 C566.659694,819.383902 565.374274,819.82374 564.04,819.98 C561.007578,820.081268 558.16104,821.466365 556.21,823.79 C553.46,827.35 551.73,832.21 557.21,836.47 L576.97,843.29 C576.97,843.29 610.97,847.7 609.14,840.08 C607.31,832.46 606.25,825.78 606.25,825.78 C606.25,825.78 606.63,818.34 603.49,812.26 C603.138665,811.565317 602.737622,810.896912 602.29,810.26 L603.49,810.12 C603.49,810.12 605.97,793.28 609.29,790.12 C610.05,789.38 610.22,788.81 610.04,788.38 C610.39,787.46 609.52,786.92 608.41,786.62 L608.17,787.28 C607.08567,787.043395 605.979804,786.919404 604.87,786.91 C604.87,786.91 603.76,778.09 607.35,774.91 C607.941062,774.173797 608.195121,773.222893 608.05,772.29 C608.080295,771.08245 607.955952,769.875987 607.68,768.7 C607.68,768.76 607.6,768.84 607.55,768.9 C605.74,760.9 599.62,748.17 599.62,748.17 C599.62,748.17 599.34,740.17 601.55,736.95 C603.76,733.73 601.28,693.36 601.28,693.36 C601.28,693.36 602.11,673.85 599.62,664.76 C597.13,655.67 602.62,644.97 602.62,644.97 C602.62,644.97 602.62,644.76 602.56,644.39 L602.63,644.25 C602.63,644.25 602.51,643.05 602.31,641.18 C602.282368,641.238238 602.258973,641.298394 602.24,641.36 C601.69,636.2 600.63,626.84 599.86,622.51 C598.75,616.36 600.13,586.95 600.13,586.95 L605.13,574.39 L613.97,596.04 L623.37,624.92 C623.37,624.92 628.02,631.02 628.13,637.2 C628.13,637.5 628.13,637.8 628.07,638.1 C627.9949,638.740566 627.958168,639.385049 627.96,640.03 C627.794506,643.676899 628.796379,647.281543 630.82,650.32 C630.82,650.32 633.31,663.95 637.18,667.43 C641.05,670.91 641.04,677.59 641.04,677.59 C641.04,677.59 645.74,697.37 647.95,700.85 C649.81,703.78 649.95,711.85 649.89,714.3 C649.89,714.76 649.89,715.02 649.89,715.02 C649.89,715.02 650.54,722.09 650.52,728.02 C650.52,728.75 650.52,729.46 650.45,730.13 L650.45,729.98 C650.443338,731.59978 650.252104,733.213525 649.88,734.79 C649.847407,734.878137 649.820682,734.968334 649.8,735.06 C649.8,734.73 649.8,734.39 649.88,734.06 C648.917151,738.098039 648.453684,742.239013 648.5,746.39 C648.37,753.5 649.5,761.93 653.76,766.87 C661.22,775.43 665.92,774.36 665.92,774.36 C665.92,774.36 662.32,785.05 657.92,787.19 C657.753999,787.274563 657.596595,787.375034 657.45,787.49 C657.45,787.28 657.37,787.08 657.34,786.87 C656.42,787.67 656.05,789.11 656.05,790.87 C655.73,795.57 658.69,803.21 661.52,806.72 C662.564148,807.74365 663.845665,808.492633 665.25,808.9 C665.024016,809.054967 664.790388,809.198481 664.55,809.33 C664.05884,809.598537 663.551156,809.835679 663.03,810.04 C662.31647,810.355988 661.556775,810.555197 660.78,810.63 C657.745084,810.699098 654.886065,812.068514 652.93,814.39 C650.18,817.94 648.45,822.8 653.93,827.06 L673.69,833.88 C673.69,833.88 707.63,838.28 705.82,830.66 Z" id="Shape" fill="url(#linearGradient-7)" fill-rule="nonzero"></path>
            <path d="M576.06,843.29 L556.94,836.47 C551.66,832.21 553.34,827.35 556.01,823.79 C557.862206,821.483284 560.62386,820.093336 563.58,819.98 C564.876282,819.821747 566.122154,819.381425 567.23,818.69 C568.436267,818.018674 569.46479,817.069005 570.23,815.92 C571.628661,813.70683 572.383513,811.147952 572.41,808.53 C572.41,808.53 593.41,802.38 599.15,808.53 C600.175345,809.641774 601.03121,810.898615 601.69,812.26 C604.69,818.34 604.37,825.78 604.37,825.78 C604.37,825.78 605.44,832.45 607.17,840.08 C608.9,847.71 576.06,843.29 576.06,843.29 Z" id="Shape" fill="#2D293D" fill-rule="nonzero"></path>
            <path d="M669.63,833.87 L650.51,827.05 C645.24,822.79 646.92,817.93 649.58,814.38 C651.427924,812.067998 654.192166,810.676748 657.15,810.57 C657.90768,810.496209 658.647793,810.296818 659.34,809.98 C659.844542,809.774705 660.335531,809.53756 660.81,809.27 C666.16,806.33 666.02,799.11 666.02,799.11 C666.02,799.11 687.02,792.96 692.76,799.11 C693.528249,799.941036 694.199249,800.856951 694.76,801.84 C698.36,808.06 697.96,816.36 697.96,816.36 C697.96,816.36 699.03,823.04 700.77,830.66 C702.51,838.28 669.63,833.87 669.63,833.87 Z" id="Shape" fill="#2D293D" fill-rule="nonzero"></path>
            <path d="M599.18,808.53 C600.205345,809.641774 601.06121,810.898615 601.72,812.26 L570.26,815.91 C571.658661,813.69683 572.413513,811.137952 572.44,808.52 C572.44,808.52 593.44,802.39 599.18,808.53 Z" id="Shape" fill="#000000" fill-rule="nonzero" opacity="0.1"></path>
            <path d="M694.77,801.84 L694.77,807.73 C689.88,815.79 666.21,814.03 659.34,809.98 C659.844542,809.774705 660.335531,809.53756 660.81,809.27 C666.16,806.33 666.02,799.11 666.02,799.11 C666.02,799.11 687.02,792.96 692.76,799.11 C693.531747,799.940511 694.206116,800.856446 694.77,801.84 Z" id="Shape" fill="#000000" fill-rule="nonzero" opacity="0.1"></path>
            <path d="M698.51,776.45 C697.042952,779.00798 695.791944,781.683934 694.77,784.45 L694.77,805.59 C689.42,814.41 661.61,811.47 657.87,806.66 C654.13,801.85 650.12,789.28 654.39,787.14 C658.66,785 662.13,774.31 662.13,774.31 C662.13,774.31 657.58,775.38 650.36,766.82 C643.14,758.26 645.28,739.28 646.63,734.74 C647.98,730.2 646.63,714.95 646.63,714.95 C646.63,714.95 646.9,704.26 644.76,700.78 C642.62,697.3 638.13,677.52 638.13,677.52 C638.13,677.52 638.13,670.84 634.38,667.36 C630.63,663.88 628.23,650.25 628.23,650.25 C626.041716,646.842459 625.098464,642.783296 625.56,638.76 C626.36,632.07 621.01,624.85 621.01,624.85 L611.92,595.98 L603.37,574.32 L598.56,586.89 C598.56,586.89 597.22,616.3 598.29,622.45 C599.36,628.6 600.96,644.91 600.96,644.91 C600.96,644.91 595.62,655.6 598.02,664.69 C600.42,673.78 599.63,693.3 599.63,693.3 C599.63,693.3 602.03,733.67 599.89,736.88 C597.75,740.09 598.02,748.11 598.02,748.11 C598.02,748.11 609.02,771.63 605.51,774.84 C602,778.05 603.1,786.84 603.1,786.84 C603.1,786.84 610.59,786.84 607.38,790.05 C604.17,793.26 601.76,810.05 601.76,810.05 L569.44,813.8 C569.44,813.8 566.44,810.05 562.2,800.16 C557.96,790.27 563,791.34 567.3,790.27 C571.6,789.2 568.88,786.53 563.8,783.27 C558.72,780.01 561.66,772.84 561.66,772.84 C561.66,772.84 569.41,759.74 566.74,758.67 C564.07,757.6 563.8,739.15 563.8,739.15 C563.8,739.15 558.45,717.23 559.8,711.35 C561.15,705.47 555.47,691.39 555.47,691.39 L553.6,674.54 C543.97,657.97 547.72,642.73 547.72,642.73 L547.72,616.83 C547.72,616.83 540.23,566.57 539.16,541.17 C538.48,524.9 538.67,502.7 538.89,488.85 C539.02,481.08 539.16,475.93 539.16,475.93 L654.66,463.93 C654.66,463.93 654.54,469.26 656.76,481.09 C657.93,487.43 659.76,495.64 662.68,505.91 C670.97,535.32 665.89,557.24 665.89,557.24 L664.82,594.39 C664.82,594.39 674.98,619.26 672.82,627.81 C671.537783,632.885438 670.820098,638.086977 670.68,643.32 C670.68,643.32 693.43,697.58 691.02,713.39 C688.61,729.2 698.51,754.03 698.51,754.03 C698.51,754.03 701.18,771.63 698.51,776.45 Z" id="Shape" fill="#575988" fill-rule="nonzero"></path>
            <path d="M632.47,637.15 L667.63,632.47 C667.63,632.47 647.71,652.79 632.47,637.15 Z" id="Shape" fill="#000000" fill-rule="nonzero" opacity="0.05"></path>
            <path d="M662.55,598.12 C662.55,598.12 663.75,610.55 656.13,615.23 C656.13,615.23 669.77,613.09 662.55,598.12 Z" id="Shape" fill="#000000" fill-rule="nonzero" opacity="0.1"></path>
            <path d="M660.39,558.55 C660.39,558.55 631,582.74 620.31,580.74 C609.62,578.74 660.39,558.55 660.39,558.55 Z" id="Shape" fill="#000000" fill-rule="nonzero" opacity="0.1"></path>
            <path d="M588.89,648.52 C588.89,648.52 566.57,653.59 565.89,662.52 C565.21,671.45 588.89,648.52 588.89,648.52 Z" id="Shape" fill="#000000" fill-rule="nonzero" opacity="0.1"></path>
            <path d="M593.8,760 C593.8,760 562.25,765.89 571.21,769.9 C580.17,773.91 594.87,777.11 594.87,777.11 C594.87,777.11 605.03,777.65 593.8,760 Z" id="Shape" fill="#000000" fill-rule="nonzero" opacity="0.05"></path>
            <g id="Group" opacity="0.05" transform="translate(538.000000, 475.000000)" fill="#000000" fill-rule="nonzero">
                <path d="M26.84,301.26 C25.2302937,300.256957 24.1661932,298.57428 23.95,296.69 L23.63,297.25 C23.63,297.25 20.69,304.47 25.77,307.68 L27.42,308.76 C28.35,308.59 29.36,308.46 30.34,308.21 C34.64,307.14 31.92,304.47 26.84,301.26 Z" id="Shape"></path>
                <path d="M67.48,299.12 C68.34,298.32 68.31,296.27 67.78,293.63 C66.36,295.7 66.02,298.92 65.99,301.37 C66.3202761,300.522194 66.8283425,299.75498 67.48,299.12 Z" id="Shape"></path>
                <path d="M62.62,166.11 C61.4514628,169.270254 60.7344034,172.579501 60.49,175.94 C61.0923137,173.619222 61.9091646,171.359491 62.93,169.19 C62.93,169.19 62.81,167.98 62.62,166.11 Z" id="Shape"></path>
                <path d="M134.85,152.07 C135.068928,151.112711 135.166363,150.13165 135.14,149.15 C134.75,151.15 134.47,153 134.27,154.62 C134.44,153.79 134.63,152.94 134.85,152.07 Z" id="Shape"></path>
                <path d="M61.86,261.16 C62.3,260.5 62.54,258.3 62.66,255.22 C61.66,257.17 61.25,260.32 61.12,262.72 C61.3039981,262.172522 61.5524066,261.64885 61.86,261.16 Z" id="Shape"></path>
                <path d="M68.49,311.58 C66.29,317.58 64.8,328 64.8,328 L32.47,331.74 C32.47,331.74 29.47,328 25.23,318.11 C24.86,317.24 24.56,316.46 24.32,315.75 C22.38,316.64 21.62,318.65 24.16,324.52 C28.44,334.41 31.4,338.16 31.4,338.16 L63.73,334.39 C63.73,334.39 66.14,317.55 69.35,314.39 C70.93,312.79 69.92,311.98 68.49,311.58 Z" id="Shape"></path>
                <path d="M25.77,263.56 C25.77,263.56 26.04,282.01 28.71,283.08 C30.06,280.03 30.96,277.08 29.71,276.65 C27.04,275.59 26.77,257.14 26.77,257.14 C26.77,257.14 21.42,235.21 22.77,229.33 C24.12,223.45 18.49,209.28 18.49,209.28 L16.62,192.44 C6.99,175.86 10.74,160.62 10.74,160.62 L10.74,134.7 C10.74,134.7 3.25,84.43 2.18,59.03 C1.5,42.77 1.69,20.57 1.91,6.72 C1.91,4.21 2,1.99 2.04,0.12 L1.11,0.21 C1.11,0.21 0.97,5.36 0.84,13.13 C0.62,26.98 0.43,49.13 1.11,65.45 C2.18,90.85 9.67,141.11 9.67,141.11 L9.67,167.05 C9.67,167.05 5.92,182.29 15.55,198.86 L17.42,215.71 C17.42,215.71 23.03,229.88 21.7,235.71 C20.37,241.54 25.77,263.56 25.77,263.56 Z" id="Shape"></path>
                <path d="M120.95,324.52 C118.322772,320.718669 116.573882,316.380601 115.83,311.82 C112.53,314.82 116.32,326.37 119.83,330.94 C123.57,335.75 151.38,338.69 156.73,329.87 L156.73,324.78 C149.55,331.95 124.49,329.07 120.95,324.52 Z" id="Shape"></path>
                <path d="M161.59,294.31 C160.117644,296.86667 158.863211,299.542793 157.84,302.31 L157.84,306.06 C158.45,304.69 159.32,302.86 160.52,300.71 C161.29,299.32 161.61,296.87 161.69,294.08 C161.65,294.17 161.62,294.25 161.59,294.31 Z" id="Shape"></path>
                <path d="M122.59,298.52 C123.612619,296.465485 124.494645,294.343945 125.23,292.17 C125.23,292.17 120.68,293.24 113.46,284.69 C108.21,278.46 107.91,266.69 108.66,259.02 C107.31,263.57 105.18,282.55 112.39,291.1 C117.13,296.7 120.68,298.17 122.59,298.52 Z" id="Shape"></path>
                <path d="M108.65,239.23 C109.120791,244.499396 109.297731,249.790924 109.18,255.08 C109.317042,254.243743 109.500661,253.415788 109.73,252.6 C111.08,248.06 109.73,232.82 109.73,232.82 C109.73,232.82 110,222.12 107.86,218.65 C105.72,215.18 101.13,195.39 101.13,195.39 C101.13,195.39 101.13,188.7 97.39,185.23 C93.65,181.76 91.24,168.12 91.24,168.12 C89.0525203,164.708399 88.109432,160.646408 88.57,156.62 C89.37,149.94 84.02,142.72 84.02,142.72 L74.93,113.84 L66.38,92.19 L61.56,104.75 C61.56,104.75 61.49,106.33 61.4,108.81 L65.31,98.6 L73.86,120.26 L82.95,149.13 C82.95,149.13 88.3,156.35 87.5,163.04 C87.0384638,167.063296 87.9817157,171.122459 90.17,174.53 C90.17,174.53 92.58,188.17 96.32,191.64 C100.06,195.11 100.13,201.8 100.13,201.8 C100.13,201.8 104.68,221.59 106.82,225.06 C108.96,228.53 108.65,239.23 108.65,239.23 Z" id="Shape"></path>
            </g>
            <path d="M669.13,222.39 L667.13,232.15 L667.25,236.49 L667.33,239.7 L656.13,240.8 L654.88,238.49 C652.57,234.31 647.78,225.8 646.22,224.49 C644.16,222.75 640.48,195.61 644.9,197.22 C647.593074,198.262043 649.80517,200.263972 651.11,202.84 C651.11,202.84 673.05,205.39 669.13,222.39 Z" id="Shape" fill="#FFCDD3" fill-rule="nonzero"></path>
            <path d="M667.29,239.65 L656.13,240.8 L654.88,238.49 C656.48,236.84 661.05,233.09 667.2,236.49 L667.29,239.65 Z" id="Shape" fill="#000000" fill-rule="nonzero" opacity="0.1"></path>
            <path d="M670.13,244.93 L655.4,248.39 L655.09,246.19 L654.26,240.3 C654.26,240.3 660.07,232.54 668.5,238.35 L669.23,241.35 L670.13,244.93 Z" id="Shape" fill="#DCE6F2" fill-rule="nonzero"></path>
            <path d="M431.81,223.39 L416.13,231.83 C416.13,231.83 415.53,230.59 414.71,228.83 C413.21,225.7 410.99,220.98 410.38,219.29 C409.45,216.69 402.89,213.41 402.89,213.41 C386.46,197.7 406.04,184.2 406.04,184.2 C416.4,163.35 427.96,191.28 427.96,191.28 C427.96,191.28 429.56,206 428.43,206.99 C427.3,207.98 427.3,211.99 427.3,211.99 C428.799573,214.883656 430.06366,217.893386 431.08,220.99 C431.55,222.49 431.81,223.39 431.81,223.39 Z" id="Shape" fill="#FFCDD3" fill-rule="nonzero"></path>
            <path d="M431.81,223.39 L416.13,231.83 C416.13,231.83 415.53,230.59 414.71,228.83 C416.92,226.98 424.78,220.61 427.36,220.9 C428.593973,221.052945 429.840075,221.083093 431.08,220.99 C431.55,222.49 431.81,223.39 431.81,223.39 Z" id="Shape" fill="#000000" fill-rule="nonzero" opacity="0.1"></path>
            <path d="M433.42,228.15 L415.77,236.85 L415.42,233.05 L415.13,230.39 C415.13,230.39 425.35,221.63 428.37,221.97 C429.898413,222.19524 431.451587,222.19524 432.98,221.97 L433.18,225.15 L433.42,228.15 Z" id="Shape" fill="#DCE6F2" fill-rule="nonzero"></path>
            <path d="M626.32,287.18 C626.32,287.18 549.38,295.86 563.76,291.18 C573.76,287.92 577.76,281.55 578.58,274.49 C579.26,268.58 577.74,262.19 575.72,256.69 C573.902972,251.835777 571.59782,247.178565 568.84,242.79 C568.84,242.79 627.66,210.43 615.84,239.79 C614.027031,244.240117 612.904093,248.940941 612.51,253.73 C612.150064,258.48604 612.661794,263.267829 614.02,267.84 C616.247671,275.30234 620.506256,281.998358 626.32,287.18 Z" id="Shape" fill="#FFCDD3" fill-rule="nonzero"></path>
            <path d="M615.89,239.85 C614.077031,244.300117 612.954093,249.000941 612.56,253.79 C607.02,258.44 600.94,258.14 593.14,258.14 C587.14,258.14 580.51,259.59 575.72,256.7 C573.902972,251.845777 571.59782,247.188565 568.84,242.8 C568.84,242.8 627.66,210.44 615.89,239.85 Z" id="Shape" fill="#000000" fill-rule="nonzero" opacity="0.1"></path>
            <circle id="Oval" fill="#FFCDD3" fill-rule="nonzero" cx="592.1" cy="228.36" r="31.82"></circle>
            <path d="M626.32,287.18 C626.32,287.18 549.38,295.86 563.76,291.18 C573.76,287.92 577.76,281.55 578.58,274.49 C582.41,270.35 590.11,267.35 595.05,265.76 C599.580148,264.234815 604.472197,264.154446 609.05,265.53 C610.845969,266.065413 612.554027,266.860485 614.12,267.89 C616.328066,275.32289 620.550665,281.999442 626.32,287.18 Z" id="Shape" fill="#000000" fill-rule="nonzero" opacity="0.1"></path>
            <path d="M670.13,244.93 L655.4,248.39 L655.09,246.19 C659.24,240.89 664.47,240.25 669.23,241.36 L670.13,244.93 Z" id="Shape" fill="#000000" fill-rule="nonzero" opacity="0.1"></path>
            <path d="M433.42,228.15 L415.77,236.85 L415.42,233.05 C421.73,229.33 432.3,225.5 433.22,225.17 L433.42,228.15 Z" id="Shape" fill="#000000" fill-rule="nonzero" opacity="0.1"></path>
            <path d="M656.76,481.06 C626.96,485.76 584.55,491.89 577.82,489.84 C572.24,488.14 554.41,488.32 538.89,488.84 C539.02,481.07 539.16,475.92 539.16,475.92 L654.66,463.92 C654.66,463.92 654.54,469.23 656.76,481.06 Z" id="Shape" fill="#000000" fill-rule="nonzero" opacity="0.1"></path>
            <path d="M686.48,474.06 C686.48,474.06 588.36,490.91 577.82,487.7 C567.28,484.49 513.23,487.97 513.23,487.97 C488.9,504.27 499.06,480.21 499.06,480.21 C499.06,480.21 496.92,467.65 499.86,457.49 C501.821123,450.037317 503.159067,442.43445 503.86,434.76 C503.86,434.76 503.33,418.76 506.27,414.98 C509.21,411.2 512.68,384.5 512.68,384.5 C512.68,384.5 515.36,366.32 515.09,362.31 C514.82,358.3 515.89,347.07 515.89,347.07 L519.38,328.39 C499.38,325.72 438.38,288.29 438.38,288.29 C435.44,275.72 412.71,246.29 412.71,246.29 C412.379501,243.816847 411.751625,241.39264 410.84,239.07 C409.23,234.79 433.3,226.24 433.3,226.24 C433.3,226.24 451.21,248.16 454.95,254.04 C458.69,259.92 471.53,270.89 471.53,270.89 C473.523222,270.685078 475.536753,270.948754 477.41,271.66 C477.52,271.66 477.61,271.72 477.72,271.75 C477.83,271.78 477.72,271.75 477.72,271.75 C483.72,273.84 489.72,278.62 489.72,278.62 C499.35,278.09 506.03,284.77 506.03,284.77 C506.03,284.77 517.03,283.17 518.86,285.04 C520.69,286.91 530.09,285.04 530.09,285.04 C530.09,285.04 539.45,265.25 545.6,271.04 C551.75,276.83 577.84,276.52 577.84,276.52 C581.32,271.9 589.78,268.59 595.07,266.88 C599.600148,265.354815 604.492197,265.274446 609.07,266.65 C611.043294,267.212119 612.904186,268.112114 614.57,269.31 L630.4,284.81 C630.4,284.81 634.95,278.93 634.4,277.59 C633.85,276.25 639.75,275.19 639.75,275.19 C639.75,275.19 647.5,272.78 650.44,271.98 C653.38,271.18 656.08,274.36 656.32,274.64 C656.22,274.3 654.21,267.83 654.99,262.89 C655.77,257.95 651.78,253.26 651.78,253.26 C661.14,230.26 682.26,249.52 682.26,249.52 C682.26,249.52 684.67,262.09 682.53,266.9 C680.39,271.71 684.67,281.9 684.13,284.54 C683.59,287.18 685.2,291.76 685.2,296.84 C685.2,301.92 682.53,311.55 680.92,315.84 C679.31,320.13 666.43,329.69 666.43,329.69 C666.43,329.69 665.62,344.93 660.01,353.75 C654.4,362.57 657.87,392.75 657.87,392.75 C657.87,392.75 663.22,416.28 669.87,423.75 C676.52,431.22 686.48,474.06 686.48,474.06 Z" id="Shape" fill="#656691" fill-rule="nonzero"></path>
            <path d="M543.44,298.14 C543.44,298.14 540.5,289.32 537.83,288.51 C535.167395,287.531241 532.574702,286.37188 530.07,285.04 L531.79,281.75 C531.79,281.75 541.84,284.5 543.44,287.44 C545.04,290.38 543.44,298.14 543.44,298.14 Z" id="Shape" fill="#000000" fill-rule="nonzero" opacity="0.1"></path>
            <path d="M489.7,278.62 C489.17,281.3 465.37,283.7 465.37,283.7 L477.37,271.64 L477.67,271.74 C477.67,271.74 477.67,271.74 477.67,271.74 C483.75,273.84 489.7,278.62 489.7,278.62 Z" id="Shape" fill="#000000" fill-rule="nonzero" opacity="0.1"></path>
            <circle id="Oval" fill="#575988" fill-rule="nonzero" cx="420.85" cy="241.92" r="2.14"></circle>
            <circle id="Oval" fill="#575988" fill-rule="nonzero" cx="423.59" cy="246.2" r="2.14"></circle>
            <circle id="Oval" fill="#575988" fill-rule="nonzero" cx="426.27" cy="250.15" r="2.14"></circle>
            <circle id="Oval" fill="#575988" fill-rule="nonzero" cx="429.07" cy="254.42" r="2.14"></circle>
            <circle id="Oval" fill="#575988" fill-rule="nonzero" cx="681.09" cy="254.19" r="1.74"></circle>
            <circle id="Oval" fill="#575988" fill-rule="nonzero" cx="681.36" cy="258.13" r="1.74"></circle>
            <circle id="Oval" fill="#575988" fill-rule="nonzero" cx="681.6" cy="262.08" r="1.74"></circle>
            <path d="M543.57,370.59 C543.33,370.28 603.57,446.39 650.38,402.41 C650.38,402.39 576.46,412.44 543.57,370.59 Z" id="Shape" fill="#000000" fill-rule="nonzero" opacity="0.1"></path>
            <path d="M508.95,410.16 C508.95,410.16 545.01,411.16 548.79,421.52 L548.79,432.31 C546.705445,433.476572 544.164555,433.476572 542.08,432.31 C538.44,430.31 516.64,419.31 508.95,424.6 L508.95,410.16 Z" id="Shape" fill="#000000" fill-rule="nonzero" opacity="0.1"></path>
            <path d="M509.62,410.16 C509.62,410.16 544.11,411.1 547.72,420.99 L547.72,431.28 C545.725187,432.39481 543.294813,432.39481 541.3,431.28 C537.83,429.41 516.97,418.85 509.62,423.93 L509.62,410.16 Z" id="Shape" fill="#656691" fill-rule="nonzero"></path>
            <path d="M528.64,331.85 C528.64,331.85 532.77,342.47 542.64,355.85 C548.742034,364.037071 556.135254,371.176982 564.53,376.99 C564.53,376.99 529.24,336.81 528.64,331.85 Z" id="Shape" fill="#000000" fill-rule="nonzero" opacity="0.1"></path>
            <path d="M516.84,289.94 C516.84,289.94 522.84,315.94 538.36,324.74 L516.84,289.94 Z" id="Shape" fill="#000000" fill-rule="nonzero" opacity="0.1"></path>
            <path d="M507.61,292.57 C507.46,292.09 502.27,313.11 527.61,324.74 C527.6,324.74 516.84,321.09 507.61,292.57 Z" id="Shape" fill="#000000" fill-rule="nonzero" opacity="0.1"></path>
            <path d="M665.13,275.15 C664.73,275.15 677.63,283.360037 681.13,287.150107 C681.13,287.180054 672.71,274.609998 665.13,275.15 Z" id="Shape" fill="#000000" fill-rule="nonzero" opacity="0.1"></path>
            <path d="M583.5,257.2 C583.95,258.84 584.5,260.64 585.98,261.5 C586.915634,261.949728 587.941931,262.178935 588.98,262.17 C598.68,262.77 608.77,263.17 617.75,259.46 C619.421716,258.864873 620.922135,257.869171 622.12,256.56 C623.71,254.61 624.02,251.96 624.66,249.56 C625.92,244.81 628.6,240.56 630.54,236.05 C633.790499,228.404024 634.880075,220.012555 633.69,211.79 C633.440075,209.264115 632.608327,206.830482 631.26,204.68 C628.68,201.01 624,199.52 620.59,196.6 C617.18,193.68 615,189.21 611.03,187.01 C607.45,185.01 603.03,185.26 599.03,185.94 C591.096337,187.292902 583.493709,190.147281 576.63,194.35 C574.33,195.77 571.8,197.4 569.14,196.9 C566.82,196.46 565.14,194.51 563.64,192.68 C561.740218,197.040542 560.920362,201.79502 561.25,206.54 C561.351948,207.235241 561.328238,207.943138 561.18,208.63 C560.851082,209.461477 560.346205,210.21197 559.7,210.83 C557.31,213.61 555.81,218.01 558.18,220.83 C559.18,222.05 560.79,222.72 561.79,223.96 C563.59,226.2 562.98,229.41 562.94,232.27 C562.833045,233.263166 563.081017,234.262138 563.64,235.09 C564.54,236.18 566.18,236.27 567.57,236.03 C568.96,235.79 570.38,235.32 571.75,235.63 C573.243678,236.127451 574.526056,237.113895 575.39,238.43 C579.87,244.08 581.62,250.39 583.5,257.2 Z" id="Shape" fill="#2D293D" fill-rule="nonzero"></path>
            <g id="Group" opacity="0.1" transform="translate(556.000000, 192.000000)" fill="#000000" fill-rule="nonzero">
                <path d="M67.19,62.11 C65.9921347,63.4191713 64.4917159,64.4148726 62.82,65.01 C53.82,68.75 43.75,68.32 34.05,67.71 C33.0121963,67.7271377 31.9847896,67.5011082 31.05,67.05 C29.58,66.18 29.05,64.39 28.57,62.75 C26.69,55.89 24.94,49.63 20.46,43.93 C19.5960561,42.6138952 18.3136779,41.6274505 16.82,41.13 C15.45,40.82 14.03,41.29 12.64,41.53 C11.25,41.77 9.64,41.68 8.71,40.59 C8.15101659,39.7621383 7.90304466,38.7631656 8.01,37.77 C8.01,34.91 8.65,31.69 6.86,29.46 C5.86,28.21 4.28,27.55 3.24,26.33 C1.76,24.56 1.8,22.17 2.63,19.94 C0.93,22.64 0.19,26.11 2.18,28.46 C3.18,29.69 4.79,30.35 5.79,31.6 C7.58,33.83 6.98,37.05 6.94,39.91 C6.83304466,40.9031656 7.08101659,41.9021383 7.64,42.73 C8.54,43.82 10.18,43.91 11.57,43.67 C12.96,43.43 14.38,42.96 15.75,43.27 C17.2436779,43.7674505 18.5260561,44.7538952 19.39,46.07 C23.87,51.77 25.62,58.07 27.5,64.89 C27.95,66.52 28.5,68.32 29.98,69.19 C30.9147896,69.6411082 31.9421963,69.8671377 32.98,69.85 C42.68,70.46 52.77,70.85 61.75,67.15 C63.4217159,66.5548726 64.9221347,65.5591713 66.12,64.25 C66.7263526,63.4766761 67.1933351,62.603622 67.5,61.67 C67.4,61.82 67.3,61.97 67.19,62.11 Z" id="Shape"></path>
                <path d="M5.28,15.75 C5.72288807,15.2896618 6.06364552,14.7410423 6.28,14.14 C6.42823832,13.4531385 6.45194781,12.745241 6.35,12.05 C6.08647674,8.15272813 6.59276959,4.2417008 7.84,0.54 L7.67,0.33 C5.76945767,4.69031421 4.94956945,9.44497979 5.28,14.19 C5.32994292,14.7088008 5.32994292,15.2311992 5.28,15.75 Z" id="Shape"></path>
            </g>
            <path d="M577.82,276.48 C577.82,276.48 617.57,281.75 621.14,275.78" id="Shape" fill="#000000" fill-rule="nonzero" opacity="0.1"></path>
            <path d="M655.13,260.04 C655.13,260.04 677.21,260.04 682.07,268.34" id="Shape" fill="#000000" fill-rule="nonzero" opacity="0.1"></path>
        </g>
    </g>
</svg>